<svg width="32" height="32" viewBox="0 0 32 32" fill="none" xmlns="http://www.w3.org/2000/svg">
<g opacity="0.6">
<rect opacity="0.3" width="32" height="32" rx="4" fill="white"/>
<path d="M23.1875 8.1875H8.8125C8.4668 8.1875 8.1875 8.4668 8.1875 8.8125V23.1875C8.1875 23.5332 8.4668 23.8125 8.8125 23.8125H23.1875C23.5332 23.8125 23.8125 23.5332 23.8125 23.1875V8.8125C23.8125 8.4668 23.5332 8.1875 23.1875 8.1875ZM21.3828 12.748H20.1348C19.1562 12.748 18.9668 13.2129 18.9668 13.8965V15.4023H21.3027L20.998 17.7598H18.9668V23.8125H16.5312V17.7617H14.4941V15.4023H16.5312V13.6641C16.5312 11.6465 17.7637 10.5469 19.5645 10.5469C20.4277 10.5469 21.168 10.6113 21.3848 10.6406V12.748H21.3828Z" fill="white"/>
</g>
</svg>
