<svg width="32" height="32" viewBox="0 0 32 32" fill="none" xmlns="http://www.w3.org/2000/svg">
<g opacity="0.6">
<rect opacity="0.3" width="32" height="32" rx="4" fill="white"/>
<path d="M15.9991 12.1475C14.9771 12.1475 13.997 12.5534 13.2744 13.2761C12.5517 13.9987 12.1458 14.9788 12.1458 16.0008C12.1458 17.0228 12.5517 18.0029 13.2744 18.7255C13.997 19.4482 14.9771 19.8541 15.9991 19.8541C17.0211 19.8541 18.0012 19.4482 18.7238 18.7255C19.4464 18.0029 19.8524 17.0228 19.8524 16.0008C19.8524 14.9788 19.4464 13.9987 18.7238 13.2761C18.0012 12.5534 17.0211 12.1475 15.9991 12.1475ZM15.9991 18.5033C15.3352 18.5033 14.6984 18.2396 14.229 17.7701C13.7595 17.3006 13.4958 16.6639 13.4958 16C13.4958 15.336 13.7595 14.6993 14.229 14.2298C14.6984 13.7604 15.3352 13.4966 15.9991 13.4966C16.663 13.4966 17.2997 13.7604 17.7692 14.2298C18.2387 14.6993 18.5024 15.336 18.5024 16C18.5024 16.6639 18.2387 17.3006 17.7692 17.7701C17.2997 18.2396 16.663 18.5033 15.9991 18.5033Z" fill="white"/>
<path d="M20.005 12.9041C20.5012 12.9041 20.9034 12.5019 20.9034 12.0058C20.9034 11.5096 20.5012 11.1074 20.005 11.1074C19.5089 11.1074 19.1067 11.5096 19.1067 12.0058C19.1067 12.5019 19.5089 12.9041 20.005 12.9041Z" fill="white"/>
<path d="M23.1109 11.0927C22.918 10.5945 22.6232 10.1421 22.2453 9.76444C21.8675 9.38676 21.415 9.09212 20.9167 8.89939C20.3337 8.68053 19.7177 8.56218 19.095 8.54939C18.2925 8.51439 18.0384 8.50439 16.0034 8.50439C13.9684 8.50439 13.7075 8.50439 12.9117 8.54939C12.2895 8.56153 11.674 8.6799 11.0917 8.89939C10.5933 9.0919 10.1407 9.38645 9.76282 9.76417C9.38496 10.1419 9.09023 10.5944 8.89754 11.0927C8.67863 11.6757 8.56055 12.2918 8.54838 12.9144C8.51254 13.7161 8.50171 13.9702 8.50171 16.0061C8.50171 18.0411 8.50171 18.3002 8.54838 19.0977C8.56088 19.7211 8.67838 20.3361 8.89754 20.9202C9.09077 21.4184 9.38579 21.8707 9.76374 22.2484C10.1417 22.626 10.5943 22.9207 11.0925 23.1136C11.6737 23.3412 12.2895 23.468 12.9134 23.4886C13.7159 23.5236 13.97 23.5344 16.005 23.5344C18.04 23.5344 18.3009 23.5344 19.0967 23.4886C19.7193 23.4759 20.3352 23.3578 20.9184 23.1394C21.4165 22.9462 21.8689 22.6513 22.2467 22.2735C22.6245 21.8958 22.9194 21.4434 23.1125 20.9452C23.3317 20.3619 23.4492 19.7469 23.4617 19.1236C23.4975 18.3219 23.5084 18.0677 23.5084 16.0319C23.5084 13.9961 23.5084 13.7377 23.4617 12.9402C23.452 12.3088 23.3333 11.6838 23.1109 11.0927ZM22.0959 19.0361C22.0905 19.5163 22.0028 19.9921 21.8367 20.4427C21.7116 20.7668 21.52 21.0611 21.2743 21.3066C21.0286 21.5522 20.7342 21.7436 20.41 21.8686C19.9644 22.0339 19.4937 22.1216 19.0184 22.1277C18.2267 22.1644 18.0034 22.1736 15.9734 22.1736C13.9417 22.1736 13.7342 22.1736 12.9275 22.1277C12.4525 22.1219 11.982 22.0342 11.5367 21.8686C11.2114 21.7444 10.9159 21.5533 10.6691 21.3077C10.4224 21.0621 10.2299 20.7674 10.1042 20.4427C9.94041 19.9969 9.8528 19.5268 9.84504 19.0519C9.80921 18.2602 9.80088 18.0369 9.80088 16.0069C9.80088 13.9761 9.80088 13.7686 9.84504 12.9611C9.85043 12.4811 9.93809 12.0056 10.1042 11.5552C10.3584 10.8977 10.8792 10.3802 11.5367 10.1286C11.9822 9.96368 12.4526 9.87603 12.9275 9.86939C13.72 9.83356 13.9425 9.82356 15.9734 9.82356C18.0042 9.82356 18.2125 9.82356 19.0184 9.86939C19.4937 9.87511 19.9645 9.96279 20.41 10.1286C20.7341 10.2538 21.0285 10.4454 21.2742 10.6911C21.5199 10.9368 21.7115 11.2311 21.8367 11.5552C22.0005 12.001 22.0881 12.4712 22.0959 12.9461C22.1317 13.7386 22.1409 13.9611 22.1409 15.9919C22.1409 18.0219 22.1409 18.2402 22.105 19.0369H22.0959V19.0361Z" fill="white"/>
</g>
</svg>
