<svg width="276" height="22" viewBox="0 0 276 22" fill="none" xmlns="http://www.w3.org/2000/svg">
<path opacity="0.7" d="M226.528 16.08C225.461 16.08 224.491 15.8293 223.616 15.328C222.741 14.816 222.053 14.128 221.552 13.264C221.051 12.3893 220.8 11.4187 220.8 10.352C220.8 9.28533 221.051 8.32 221.552 7.456C222.053 6.58133 222.741 5.89333 223.616 5.392C224.491 4.89067 225.461 4.64 226.528 4.64C227.595 4.64 228.56 4.89067 229.424 5.392C230.299 5.89333 230.987 6.58133 231.488 7.456C231.989 8.32 232.24 9.28533 232.24 10.352C232.24 11.4187 231.989 12.3893 231.488 13.264C230.987 14.128 230.299 14.816 229.424 15.328C228.549 15.8293 227.584 16.08 226.528 16.08ZM226.528 15.36C227.456 15.36 228.299 15.1413 229.056 14.704C229.813 14.2667 230.405 13.664 230.832 12.896C231.269 12.128 231.488 11.28 231.488 10.352C231.488 9.424 231.269 8.58133 230.832 7.824C230.405 7.056 229.813 6.45333 229.056 6.016C228.299 5.57867 227.456 5.36 226.528 5.36C225.589 5.36 224.741 5.57867 223.984 6.016C223.227 6.45333 222.629 7.056 222.192 7.824C221.765 8.58133 221.552 9.424 221.552 10.352C221.552 11.28 221.765 12.128 222.192 12.896C222.629 13.664 223.227 14.2667 223.984 14.704C224.741 15.1413 225.589 15.36 226.528 15.36ZM226.64 13.808C225.659 13.808 224.875 13.4987 224.288 12.88C223.701 12.2613 223.408 11.4187 223.408 10.352C223.408 9.296 223.701 8.45867 224.288 7.84C224.875 7.22133 225.659 6.912 226.64 6.912C227.451 6.912 228.165 7.152 228.784 7.632C228.933 7.73867 229.008 7.888 229.008 8.08C229.008 8.208 228.971 8.32533 228.896 8.432C228.832 8.528 228.736 8.576 228.608 8.576C228.512 8.576 228.389 8.53333 228.24 8.448C227.931 8.256 227.669 8.11733 227.456 8.032C227.243 7.936 226.987 7.888 226.688 7.888C226.027 7.888 225.52 8.10133 225.168 8.528C224.827 8.944 224.656 9.552 224.656 10.352C224.656 11.1627 224.827 11.7813 225.168 12.208C225.52 12.624 226.027 12.832 226.688 12.832C226.987 12.832 227.243 12.7893 227.456 12.704C227.669 12.608 227.931 12.464 228.24 12.272C228.389 12.1867 228.512 12.144 228.608 12.144C228.736 12.144 228.832 12.1973 228.896 12.304C228.971 12.4 229.008 12.512 229.008 12.64C229.008 12.8213 228.933 12.9707 228.784 13.088C228.24 13.568 227.525 13.808 226.64 13.808ZM245.3 14.896C245.492 14.896 245.641 14.944 245.748 15.04C245.855 15.136 245.908 15.2693 245.908 15.44C245.908 15.8133 245.705 16 245.3 16H239.028C238.847 16 238.697 15.9467 238.58 15.84C238.463 15.7227 238.404 15.584 238.404 15.424C238.404 15.2213 238.479 15.0453 238.628 14.896L242.484 10.656C243.017 10.0587 243.401 9.52533 243.636 9.056C243.881 8.576 244.004 8.096 244.004 7.616C244.004 6.99733 243.823 6.52267 243.46 6.192C243.108 5.86133 242.607 5.696 241.956 5.696C241.444 5.696 240.953 5.792 240.484 5.984C240.015 6.16533 239.545 6.448 239.076 6.832C238.916 6.96 238.767 7.024 238.628 7.024C238.511 7.024 238.409 6.97067 238.324 6.864C238.239 6.74667 238.196 6.608 238.196 6.448C238.196 6.224 238.281 6.04267 238.452 5.904C238.889 5.49867 239.423 5.17867 240.052 4.944C240.681 4.70933 241.327 4.592 241.988 4.592C243.001 4.592 243.807 4.85867 244.404 5.392C245.012 5.92533 245.316 6.64533 245.316 7.552C245.316 8.20267 245.167 8.82667 244.868 9.424C244.58 10.0213 244.1 10.688 243.428 11.424L240.228 14.896H245.3ZM251.566 16.128C250.275 16.128 249.294 15.6373 248.622 14.656C247.95 13.6747 247.614 12.2453 247.614 10.368C247.614 8.48 247.95 7.04533 248.622 6.064C249.294 5.08267 250.275 4.592 251.566 4.592C252.856 4.592 253.838 5.08267 254.51 6.064C255.182 7.03467 255.518 8.464 255.518 10.352C255.518 12.24 255.182 13.6747 254.51 14.656C253.838 15.6373 252.856 16.128 251.566 16.128ZM251.566 15.024C252.462 15.024 253.123 14.6453 253.55 13.888C253.976 13.1307 254.19 11.952 254.19 10.352C254.19 8.74133 253.976 7.56267 253.55 6.816C253.134 6.06933 252.472 5.696 251.566 5.696C250.67 5.696 250.008 6.07467 249.582 6.832C249.155 7.57867 248.942 8.752 248.942 10.352C248.942 11.952 249.155 13.1307 249.582 13.888C250.008 14.6453 250.67 15.024 251.566 15.024ZM264.487 14.896C264.679 14.896 264.829 14.944 264.935 15.04C265.042 15.136 265.095 15.2693 265.095 15.44C265.095 15.8133 264.893 16 264.487 16H258.215C258.034 16 257.885 15.9467 257.767 15.84C257.65 15.7227 257.591 15.584 257.591 15.424C257.591 15.2213 257.666 15.0453 257.815 14.896L261.671 10.656C262.205 10.0587 262.589 9.52533 262.823 9.056C263.069 8.576 263.191 8.096 263.191 7.616C263.191 6.99733 263.01 6.52267 262.647 6.192C262.295 5.86133 261.794 5.696 261.143 5.696C260.631 5.696 260.141 5.792 259.671 5.984C259.202 6.16533 258.733 6.448 258.263 6.832C258.103 6.96 257.954 7.024 257.815 7.024C257.698 7.024 257.597 6.97067 257.511 6.864C257.426 6.74667 257.383 6.608 257.383 6.448C257.383 6.224 257.469 6.04267 257.639 5.904C258.077 5.49867 258.61 5.17867 259.239 4.944C259.869 4.70933 260.514 4.592 261.175 4.592C262.189 4.592 262.994 4.85867 263.591 5.392C264.199 5.92533 264.503 6.64533 264.503 7.552C264.503 8.20267 264.354 8.82667 264.055 9.424C263.767 10.0213 263.287 10.688 262.615 11.424L259.415 14.896H264.487ZM273.825 14.896C274.017 14.896 274.166 14.944 274.273 15.04C274.38 15.136 274.433 15.2693 274.433 15.44C274.433 15.6213 274.38 15.76 274.273 15.856C274.177 15.952 274.028 16 273.825 16H268.529C268.326 16 268.172 15.952 268.065 15.856C267.969 15.76 267.921 15.6213 267.921 15.44C267.921 15.2693 267.974 15.136 268.081 15.04C268.188 14.944 268.337 14.896 268.529 14.896H270.513V6.32L268.769 7.456C268.684 7.50933 268.598 7.536 268.513 7.536C268.364 7.536 268.23 7.46667 268.113 7.328C268.006 7.18933 267.953 7.04 267.953 6.88C267.953 6.656 268.038 6.496 268.209 6.4L270.641 4.816C270.822 4.69867 271.009 4.64 271.201 4.64C271.382 4.64 271.532 4.69867 271.649 4.816C271.766 4.93333 271.825 5.09867 271.825 5.312V14.896H273.825Z" fill="white"/>
<path d="M191.371 14.9821L185.523 2.22781C184.855 0.835186 183.964 0.222656 182.627 0.222656H182.405C181.012 0.222656 180.121 0.835186 179.453 2.22781L173.605 14.9821C173.048 16.2629 173.438 17.3771 174.607 17.8226C175.665 18.2123 176.668 17.9896 177.281 16.7645L178.617 13.9798C179.787 14.3696 181.291 14.5923 182.628 14.5923C184.076 14.5923 185.413 14.3696 186.471 13.9798L187.752 16.7645C188.309 17.9896 189.423 18.2129 190.425 17.8226C191.483 17.3771 191.928 16.2077 191.371 14.9821ZM182.515 10.7491C181.624 10.7491 180.677 10.6377 179.953 10.415L182.46 4.8455L184.966 10.415C184.242 10.6377 183.407 10.7491 182.515 10.7491Z" fill="#C7C8CB"/>
<path d="M170.319 13.8128H169.205V2.11652C169.205 0.779585 168.202 0 167.033 0C165.863 0 164.916 0.779585 164.916 2.11652V13.8128H157.453V2.11652C157.453 0.779585 156.506 0 155.281 0C154.055 0 153.108 0.779585 153.108 2.11652V15.8732C153.108 17.0425 153.888 17.9897 155.225 17.9897H168.202V19.8835C168.202 21.2204 169.149 22 170.319 22C171.544 22 172.435 21.2204 172.435 19.8835V15.9289C172.435 14.5367 171.599 13.8128 170.319 13.8128Z" fill="#C7C8CB"/>
<path d="M148.708 13.8128H147.595V2.11652C147.595 0.779585 146.592 0 145.422 0C144.253 0 143.306 0.779585 143.306 2.11652V13.8128H135.843V2.11652C135.843 0.779585 134.896 0 133.67 0C132.445 0 131.498 0.779585 131.498 2.11652V15.8732C131.498 17.0425 132.278 17.9897 133.615 17.9897H146.592V19.8835C146.592 21.2204 147.539 22 148.708 22C149.933 22 150.825 21.2204 150.825 19.8835V15.9289C150.825 14.5367 149.99 13.8128 148.708 13.8128Z" fill="#C7C8CB"/>
<path d="M124.703 0.167054H124.536C123.255 0.167054 122.42 0.779584 121.529 2.06084L114.511 12.0304V2.11653C114.511 0.779585 113.62 0 112.45 0C111.225 0 110.333 0.779585 110.333 2.11653V15.5391C110.333 16.9874 111.28 17.934 112.728 17.934H112.951C114.288 17.934 115.179 17.2658 116.014 16.0402L123.032 6.07064V16.0402C123.032 17.3772 123.923 18.1567 125.093 18.1567C126.263 18.1567 127.154 17.3772 127.154 16.0402V2.562C127.154 1.1142 126.263 0.167054 124.703 0.167054Z" fill="#C7C8CB"/>
<path d="M103.762 0.166992H91.7313C90.3386 0.166992 89.6147 1.11363 89.6147 2.28352V16.0402C89.6147 17.3771 90.6171 18.1567 91.787 18.1567C92.9563 18.1567 93.9035 17.3771 93.9035 16.0402V4.34436H101.589V16.0407C101.589 17.3776 102.536 18.1572 103.762 18.1572C104.931 18.1572 105.934 17.3776 105.934 15.985V2.22783C105.934 1.11414 105.154 0.166992 103.762 0.166992Z" fill="#C7C8CB"/>
<path d="M72.628 0C67.4483 0 63.4937 3.89894 63.4937 9.07863C63.4937 14.314 67.4483 18.1573 72.628 18.1573C77.752 18.1573 81.7623 14.2026 81.7623 9.02294C81.7061 3.78757 77.752 0 72.628 0ZM72.628 14.0356C69.7875 14.0356 67.7824 11.9191 67.7824 9.02294C67.7824 6.18252 69.8432 4.066 72.628 4.066C75.4684 4.066 77.4735 6.18252 77.4735 9.02294C77.4735 11.9191 75.5241 14.0356 72.628 14.0356Z" fill="#C7C8CB"/>
<path d="M60.4863 13.7571H59.3726V2.22785C59.3726 1.05848 58.593 0.111328 57.2561 0.111328H47.3979C46.228 0.111328 45.4484 0.890913 45.4484 2.22785V5.01259C45.4484 7.01775 45.3927 8.57692 45.0586 10.248C44.7245 11.8633 44.279 12.9213 43.666 13.7566H43.1648C41.7722 13.7566 41.104 14.6476 41.104 15.8731V19.8278C41.104 21.1647 42.0506 21.9443 43.2205 21.9443C44.4456 21.9443 45.3371 21.1647 45.3371 19.8278V17.934H58.3141V19.8278C58.3141 21.1647 59.2607 21.9443 60.4306 21.9443C61.6557 21.9443 62.5472 21.1647 62.5472 19.8278V15.8731C62.6028 14.6481 61.9341 13.7571 60.4863 13.7571ZM55.0839 13.7571H48.0661C48.5116 12.8105 48.8457 11.9747 49.1241 10.7496C49.4025 9.4127 49.5139 8.07626 49.5696 6.34953L49.6253 4.28869H55.0834V13.7571H55.0839Z" fill="#C7C8CB"/>
<path d="M31.5799 0C26.4002 0 22.4456 3.89894 22.4456 9.07863C22.4456 14.314 26.4002 18.1573 31.5799 18.1573C36.7039 18.1573 40.7142 14.2026 40.7142 9.02294C40.7142 3.78757 36.7596 0 31.5799 0ZM31.5799 14.0356C28.7394 14.0356 26.7343 11.9191 26.7343 9.02294C26.7343 6.18252 28.7951 4.066 31.5799 4.066C34.4203 4.066 36.4255 6.18252 36.4255 9.02294C36.4255 11.9191 34.5322 14.0356 31.5799 14.0356Z" fill="#C7C8CB"/>
<path d="M19.3266 13.7571H18.2129V2.22785C18.2129 1.05848 17.4334 0.111328 16.0964 0.111328H6.23821C5.06883 0.111328 4.28873 0.890913 4.28873 2.22785V5.01259C4.28873 7.01775 4.28873 8.57692 3.89894 10.248C3.56483 11.8633 3.11936 12.9213 2.50632 13.7566H2.06084C0.668217 13.7566 0 14.6476 0 15.8731V19.8278C0 21.1647 0.946636 21.9443 2.11652 21.9443C3.34158 21.9443 4.23305 21.1647 4.23305 19.8278V17.934H17.2106V19.8278C17.2106 21.1647 18.1573 21.9443 19.3271 21.9443C20.5522 21.9443 21.4437 21.1647 21.4437 19.8278V15.8731C21.4432 14.6481 20.7749 13.7571 19.3266 13.7571ZM13.9242 13.7571H6.90642C7.3519 12.8105 7.686 11.9747 7.96443 10.7496C8.24285 9.4127 8.35422 8.07626 8.4099 6.34953L8.46559 4.28869H13.9237L13.9242 13.7571Z" fill="#C7C8CB"/>
</svg>
