<svg width="32" height="32" viewBox="0 0 32 32" fill="none" xmlns="http://www.w3.org/2000/svg">
<g opacity="0.6">
<rect opacity="0.3" width="32" height="32" rx="4" fill="white"/>
<g clip-path="url(#clip0_5_184)">
<path d="M16 8C13.5428 8 11.544 9.96811 11.544 12.3876C11.544 14.8069 13.5428 16.7741 16 16.7741C18.457 16.7741 20.4549 14.8069 20.4549 12.3876C20.4549 9.96811 18.457 8 16 8ZM16 10.5707C17.0169 10.5707 17.8439 11.3862 17.8439 12.3876C17.8439 13.3886 17.0169 14.2034 16 14.2034C14.9828 14.2034 14.155 13.3886 14.155 12.3876C14.155 11.3862 14.9828 10.5707 16 10.5707ZM12.3262 16.9234C11.8853 16.9167 11.4518 17.1306 11.2003 17.5253C10.816 18.1265 11.0001 18.9199 11.6093 19.2981C12.415 19.7959 13.2893 20.1491 14.196 20.3526L11.7058 22.8059C11.196 23.3082 11.1965 24.1216 11.7064 24.6239C11.9619 24.8745 12.2952 25 12.6294 25C12.9632 25 13.2976 24.8744 13.5524 24.6233L15.9989 22.2131L18.4476 24.6233C18.9569 25.1255 19.7828 25.1255 20.2931 24.6233C20.8031 24.1214 20.8031 23.3071 20.2931 22.8059L17.8018 20.3532C18.7088 20.1496 19.5834 19.7962 20.3886 19.2981C20.9989 18.9199 21.1833 18.1257 20.7991 17.5253C20.4145 16.9239 19.6091 16.7428 18.9983 17.1216C17.1741 18.2515 14.8236 18.2508 13 17.1216C12.7901 16.9914 12.5571 16.927 12.3262 16.9234V16.9234Z" fill="white"/>
</g>
</g>
<defs>
<clipPath id="clip0_5_184">
<rect width="10" height="17" fill="white" transform="translate(11 8)"/>
</clipPath>
</defs>
</svg>
