<svg width="32" height="32" viewBox="0 0 32 32" fill="none" xmlns="http://www.w3.org/2000/svg">
<g opacity="0.6">
<rect opacity="0.3" width="32" height="32" rx="4" fill="white"/>
<g clip-path="url(#clip0_5_188)">
<path fill-rule="evenodd" clip-rule="evenodd" d="M24.5875 11.461C24.712 11.0515 24.5875 10.75 23.9913 10.75H22.0225C21.5215 10.75 21.2905 11.0103 21.1652 11.2975C21.1652 11.2975 20.164 13.6945 18.7458 15.2515C18.2867 15.703 18.0782 15.8463 17.8278 15.8463C17.7025 15.8463 17.5142 15.703 17.5142 15.2928V11.461C17.5142 10.969 17.3763 10.75 16.9593 10.75H13.8632C13.5505 10.75 13.3622 10.978 13.3622 11.1947C13.3622 11.6605 14.0718 11.7685 14.1445 13.0795V15.928C14.1445 16.5528 14.0297 16.666 13.7792 16.666C13.1117 16.666 11.488 14.2577 10.5243 11.5022C10.3375 10.966 10.1485 10.75 9.64525 10.75H7.675C7.1125 10.75 7 11.0103 7 11.2975C7 11.809 7.6675 14.35 10.1087 17.7108C11.7362 20.0057 14.0275 21.25 16.1147 21.25C17.3665 21.25 17.521 20.974 17.521 20.4977V18.763C17.521 18.2102 17.6395 18.1 18.0363 18.1C18.3287 18.1 18.829 18.244 19.9975 19.3502C21.3325 20.662 21.5523 21.25 22.3038 21.25H24.2725C24.835 21.25 25.117 20.974 24.955 20.428C24.7765 19.885 24.139 19.0968 23.2938 18.1615C22.8348 17.629 22.1463 17.0553 21.937 16.768C21.6453 16.3998 21.7285 16.2355 21.937 15.9078C21.937 15.9078 24.337 12.5882 24.5868 11.461H24.5875Z" fill="white"/>
</g>
</g>
<defs>
<clipPath id="clip0_5_188">
<rect width="18" height="18" fill="white" transform="translate(7 7)"/>
</clipPath>
</defs>
</svg>
